<svg xmlns="http://www.w3.org/2000/svg" viewBox="0 0 100 100">
  <defs>
    <linearGradient id="grad" x1="0%" y1="0%" x2="100%" y2="100%">
      <stop offset="0%" style="stop-color:#3b82f6;stop-opacity:1" />
      <stop offset="100%" style="stop-color:#93c5fd;stop-opacity:1" />
    </linearGradient>
  </defs>
  <rect width="100" height="100" rx="20" fill="url(#grad)" />
  <path d="M25,80 L75,80 L75,70 C75,70 65,70 65,60 C65,50 75,40 75,30 C75,15 60,10 50,10 C45,10 35,15 35,25 L45,25 C45,20 50,18 55,20 C60,22 62,28 60,35 C58,40 50,40 45,35 L40,40 C45,50 50,55 50,60 C50,65 25,65 25,80 Z" fill="white" />
</svg>
